<svg width="47" height="47" viewBox="0 0 47 47" fill="none" xmlns="http://www.w3.org/2000/svg">
<path d="M38.8813 23.4565L32.7274 29.6796C31.8021 30.6153 31.8021 32.1602 32.7274 33.0958L38.2573 38.688C38.6015 39.0361 38.6015 39.6236 38.2573 39.9718L31.6731 46.6301C31.3288 46.9783 30.7478 46.9783 30.4035 46.6301L24.056 40.2111C23.4966 39.6454 23.1738 38.8838 23.1738 38.0787V23.4565L31.0275 15.5144L38.2357 8.20323C38.58 7.85509 39.161 7.85509 39.5052 8.20323L46.0895 14.8616C46.4337 15.2097 46.4337 15.7972 46.0895 16.1454L38.8813 23.4565Z" fill="#8DF31E"/>
<path d="M23.1738 8.81251V23.4347L15.3201 31.3769L8.11192 38.688C7.76765 39.0361 7.18668 39.0361 6.84241 38.688L0.258204 32.0296C-0.0860681 31.6815 -0.0860681 31.094 0.258204 30.7459L7.46641 23.4347L13.6203 17.2116C14.5455 16.2759 14.5455 14.731 13.6203 13.7954L8.09038 8.20324C7.74611 7.85509 7.74611 7.26761 8.09038 6.91947L14.6746 0.261111C15.0189 -0.087037 15.5998 -0.087037 15.9441 0.261111L22.2916 6.68009C22.8511 7.24583 23.1738 8.00742 23.1738 8.81251Z" fill="#8DF31E"/>
</svg>
